<svg width="1745" height="1798" viewBox="0 0 1745 1798" fill="none" xmlns="http://www.w3.org/2000/svg">
<path d="M812.612 149.827C813.655 145.743 827.484 109.831 843.309 70.0734C859.135 30.2862 872.934 -1.21568 874.006 0.0360502C875.079 1.28778 890.011 39.1974 907.237 84.2597C924.433 129.352 939.663 168.841 941.063 172C943.418 177.365 942.703 177.663 931.675 175.785C925.119 174.682 895.196 170.063 810.645 157.277L812.612 149.827Z" fill="black"/>
<path d="M554.785 213.158C538.334 191.432 525.071 172.805 525.31 171.762C525.548 170.719 535.95 170.778 548.407 171.911C560.865 173.043 628.041 179.928 697.721 187.229C767.371 194.561 835.769 202.012 849.717 203.83C863.635 205.648 875.377 207.645 875.795 208.27C876.212 208.926 851.356 239.951 820.569 277.235C789.783 314.519 737.836 377.731 705.082 417.697C672.358 457.633 645.327 489.165 644.999 487.734C644.701 486.274 643.002 468.362 641.184 447.858C639.396 427.383 637.31 404.911 636.535 397.938C635.76 390.964 633.793 385.271 632.154 385.271C630.515 385.271 618.772 390.427 606.076 396.745C593.38 403.064 573.591 414.27 562.117 421.601C550.643 428.963 531.181 443.089 518.902 453.014C506.594 462.938 483.049 484.933 466.538 501.921C450.027 518.908 428.092 544.211 417.78 558.129C407.468 572.077 391.822 595.532 383.03 610.285C374.208 625.037 361.124 650.519 353.912 666.911C346.7 683.302 335.941 711.794 330.01 730.242C324.079 748.69 315.913 780.192 311.86 800.28C307.836 820.367 302.949 852.882 301.041 872.552C299.045 893.057 298.359 923.575 299.402 944.08C300.445 963.75 303.306 993.255 305.75 1009.65C308.224 1026.04 313.082 1052.18 316.539 1067.76C320.026 1083.35 324.079 1097.42 325.569 1099.06C327.208 1100.87 328.222 1096.25 328.192 1087.13C328.162 1078.94 329.533 1058.14 331.262 1040.94C332.99 1023.74 337.103 996.235 340.382 979.843C343.69 963.452 351.707 933.947 358.234 914.277C364.79 894.607 377.546 863.105 386.606 844.239C395.666 825.404 410.002 798.581 418.436 784.633C426.87 770.715 445.825 743.207 460.577 723.537C477.059 701.512 506.325 668.878 536.695 638.598C573.144 602.298 598.685 580.064 634.3 553.659C660.854 533.989 702.43 505.408 726.66 490.148C750.919 474.889 798.903 448.543 833.325 431.585C867.748 414.657 915.343 393.08 939.126 383.662C962.909 374.244 1004.45 359.253 1031.52 350.312C1058.58 341.371 1097.44 329.42 1117.95 323.758C1138.42 318.125 1155.53 312.879 1155.94 312.134C1156.36 311.389 1144.62 285.61 1129.87 254.883C1115.11 224.156 1103.73 198.346 1104.56 197.512C1105.4 196.707 1128.55 203.055 1155.97 211.668C1183.42 220.251 1266.9 245.554 1341.47 267.906C1416.04 290.229 1484.17 310.704 1492.81 313.356C1501.45 316.039 1508.16 319.049 1507.71 320.092C1507.26 321.105 1479.37 345.037 1445.78 373.261L1431.94 384.905C1401.18 410.774 1366.76 439.726 1350.41 453.52C1331.54 469.405 1302.04 493.695 1284.84 507.464C1267.65 521.233 1237.13 546.297 1217.04 563.196C1196.95 580.064 1179.88 593.565 1179.07 593.148C1178.27 592.731 1180.29 564.924 1183.57 531.306C1186.85 497.718 1189.17 469.793 1188.76 469.256C1188.34 468.75 1169.21 472.594 1146.26 477.84C1123.31 483.055 1084.74 493.218 1060.57 500.371C1036.4 507.553 995.484 520.935 969.674 530.114C943.865 539.324 902.617 555.447 878.03 565.997C853.442 576.518 813.208 596.009 788.62 609.271C764.033 622.534 731.19 641.459 715.603 651.324C700.016 661.188 669.855 682.349 648.546 698.383C627.237 714.387 597.821 738.677 583.188 752.326C568.554 766.006 545.218 789.908 531.36 805.495C517.501 821.082 495.537 849.902 482.542 869.572C469.578 889.242 452.441 918.747 444.454 935.139C436.497 951.531 425.797 977.012 420.671 991.765C415.515 1006.52 409.316 1027.32 406.842 1037.96C404.369 1048.63 400.435 1070.74 398.11 1087.13C395.756 1103.53 393.818 1132.02 393.789 1150.47C393.759 1168.91 395.13 1194.4 396.829 1207.09C398.527 1219.79 402.014 1240.92 404.577 1254.03C407.14 1267.15 410.419 1279.9 411.82 1282.35C413.28 1284.91 413.638 1272.81 412.624 1254.03C411.641 1235.61 412.386 1206.88 414.383 1188.47C416.32 1170.43 419.926 1145.64 422.4 1133.33C424.903 1121.05 431.37 1097.57 436.795 1081.17C442.249 1064.78 452.739 1038.65 460.101 1023.06C467.492 1007.47 483.347 979.992 495.328 961.962C510.855 938.626 528.32 917.942 556.007 890.106C577.406 868.648 607.626 841.706 623.213 830.262C638.8 818.817 658.917 804.81 667.918 799.117C676.918 793.455 693.012 784.007 703.682 778.106C714.321 772.235 737.15 761.357 754.347 753.936C771.543 746.485 799.052 735.756 815.443 730.093C831.835 724.401 862.681 714.983 883.99 709.112C905.3 703.271 936.831 695.641 954.028 692.154C971.224 688.697 985.649 685.597 986.066 685.329C986.483 685.031 979.51 663.99 970.598 638.598C961.687 613.205 954.982 592.075 955.697 591.658C956.412 591.241 969.406 596.426 984.576 603.192C999.746 609.927 1044.33 629.24 1083.67 646.108C1123.01 662.947 1178 686.968 1205.86 699.486C1233.73 712.003 1257.87 723.447 1259.51 724.878C1261.42 726.547 1260.34 728.573 1256.53 730.421C1253.25 732.001 1190.55 773.04 1117.2 821.559C1043.85 870.108 982.162 910.462 980.106 911.266C977.453 912.28 978.735 900.925 984.576 871.777C989.106 849.246 993.577 827.49 996.318 815.926L975.903 818.281C964.697 819.592 942.107 823.318 925.715 826.566C909.323 829.815 881.159 836.61 863.128 841.646C845.097 846.683 814.907 856.846 796.071 864.237C777.206 871.628 747.701 884.831 730.504 893.563C713.308 902.326 684.488 919.254 666.517 931.235C648.516 943.215 621.872 964.405 607.268 978.353C592.665 992.301 571.117 1016.41 559.405 1032C547.692 1047.59 531.241 1073.72 522.836 1090.11C514.462 1106.51 503.554 1131.99 498.636 1146.74C493.689 1161.49 487.46 1184.95 484.778 1198.9C482.066 1212.84 479.085 1237.64 478.161 1254.03C476.939 1274.86 477.953 1294.15 481.529 1318.11C484.36 1336.94 490.649 1364.45 495.537 1379.21C500.394 1393.96 510.677 1418.1 518.336 1432.85C526.025 1447.6 538.215 1467.72 545.457 1477.56C552.669 1487.39 565.633 1503.48 574.247 1513.32C582.86 1523.15 598.834 1538.59 609.772 1547.59C620.68 1556.59 639.247 1570.48 651.019 1578.44C662.762 1586.37 669.021 1591.94 664.938 1590.81C660.825 1589.67 642.049 1582.67 623.213 1575.25C604.348 1567.83 580.893 1557.7 571.058 1552.75C561.223 1547.77 539.764 1535.73 523.373 1525.99C506.981 1516.21 480.873 1498.66 465.346 1486.94C449.848 1475.23 421.804 1450.88 403.087 1432.85C384.371 1414.82 358.353 1387.34 345.299 1371.75C332.245 1356.17 310.906 1327.35 297.882 1307.68C284.828 1288.01 266.976 1257.82 258.184 1240.62C249.363 1223.42 236.22 1194.57 228.977 1176.54C221.705 1158.51 212.258 1131.69 207.996 1116.94C203.704 1102.19 198.161 1080.73 195.628 1069.25C193.124 1057.78 188.356 1030.96 185.048 1009.65C181.769 988.337 178.759 970.575 178.372 970.187C177.984 969.8 137.661 953.706 88.7835 934.424C39.9362 915.141 -0.0297865 898.034 1.66576e-05 896.395C1.66576e-05 894.756 38.6547 877.768 85.8628 858.634C133.071 839.53 173.693 822.632 176.166 821.142C178.759 819.562 181.68 811.009 183.11 800.786C184.452 791.07 188.862 767.705 192.886 748.869C196.909 730.034 206.953 694.479 215.179 669.891C223.404 645.303 237.889 609.093 247.336 589.423C256.784 569.753 271.626 542.274 280.298 528.326C289.001 514.378 305.124 490.923 316.152 476.171C327.179 461.418 345.865 438.619 357.638 425.505C369.41 412.392 390.749 391.053 405.024 378.089C419.3 365.124 445.736 343.606 463.766 330.225C481.797 316.873 505.252 300.511 515.922 293.865C526.562 287.219 546.351 276.251 559.881 269.456C573.412 262.661 584.529 256.104 584.588 254.883C584.648 253.661 571.237 234.885 554.785 213.158Z" fill="black"/>
<path d="M1308.48 549.308C1308.33 547.728 1330.68 527.581 1358.1 504.513L1407.93 462.61L1420.42 479.807C1427.27 489.284 1439.37 507.106 1447.27 519.385C1455.17 531.694 1468.73 555.149 1477.37 571.541C1486.04 587.932 1499.34 616.782 1506.88 635.617C1514.42 654.483 1524.46 683.302 1529.17 699.694C1533.88 716.086 1540.4 742.909 1543.68 759.3C1546.96 775.692 1550.75 795.094 1554.56 815.747L1629.07 845.878C1670.05 862.449 1712.96 879.973 1724.44 884.801C1735.91 889.629 1744.82 894.875 1744.26 896.484C1743.69 898.064 1739.01 900.984 1733.83 902.981C1728.67 904.948 1686.56 921.37 1640.24 939.49C1593.93 957.581 1555.48 973.406 1554.77 974.628C1554.08 975.85 1548.84 994.983 1543.15 1017.1C1537.45 1039.24 1527.83 1070.74 1521.72 1087.13C1515.61 1103.53 1505.53 1127.01 1499.37 1139.29C1493.17 1151.6 1480.17 1173.71 1470.43 1188.47C1460.71 1203.22 1444.59 1225.36 1434.6 1237.64C1424.62 1249.95 1408.64 1267.53 1399.08 1276.74C1389.51 1285.95 1373.66 1299.93 1363.82 1307.8C1353.99 1315.67 1336.88 1327.91 1325.82 1335.01C1314.76 1342.1 1294.65 1353.46 1281.12 1360.19C1267.59 1366.96 1243.12 1376.94 1226.73 1382.36C1210.33 1387.82 1184.85 1394.35 1170.1 1396.91C1155.35 1399.44 1126.17 1401.56 1105.28 1401.56C1080.6 1401.56 1059.71 1399.83 1045.67 1396.64C1033.78 1393.93 1016.02 1388.5 1006.18 1384.6C996.348 1380.7 982.281 1373.6 974.89 1368.83C967.499 1364.07 956.77 1355.36 951.048 1349.52C945.296 1343.65 941.302 1338.88 942.107 1338.88C942.911 1338.88 948.961 1341.47 955.518 1344.63C962.075 1347.76 978.168 1353.1 991.282 1356.47C1004.4 1359.8 1025.85 1363.44 1038.97 1364.54C1052.97 1365.7 1074.49 1364.99 1091.12 1362.84C1106.71 1360.82 1130.85 1355.87 1144.77 1351.82C1158.69 1347.79 1179.49 1340.49 1190.96 1335.57C1202.44 1330.69 1224.55 1318.2 1240.14 1307.83C1257.51 1296.26 1278.52 1278.5 1294.53 1261.81C1308.86 1246.88 1329.22 1221.58 1339.77 1205.6C1350.29 1189.63 1365.61 1162.45 1373.8 1145.25C1382 1128.05 1393.36 1099.86 1399.02 1082.66C1404.68 1065.47 1412.49 1035.96 1416.36 1017.1C1422.68 986.49 1423.43 975.045 1423.4 909.806C1423.37 851.541 1422.26 830.768 1417.85 806.985C1414.81 790.594 1408.64 764.456 1404.14 748.869C1399.64 733.282 1390.43 706.459 1383.67 689.263C1376.9 672.067 1362.45 641.876 1351.51 622.206C1340.57 602.536 1326.48 578.723 1320.16 569.305C1313.84 559.888 1308.6 550.887 1308.48 549.308Z" fill="black"/>
<path fill-rule="evenodd" clip-rule="evenodd" d="M550.851 620.717C551.298 620.717 551.686 621.045 551.716 621.462C551.716 621.879 542.685 630.939 511.451 660.951L530.734 640.834C541.344 629.777 550.404 620.717 550.851 620.717V620.717ZM578.359 865.102C579.164 865.102 569.806 875.176 557.557 887.485C545.308 899.793 534.609 909.867 533.804 909.867C532.969 909.867 542.328 899.793 554.577 887.485C566.855 875.176 577.525 865.102 578.359 865.102ZM300.565 902.356C301.161 912.191 301.161 928.971 300.565 939.61C299.998 950.25 299.521 942.233 299.521 921.728C299.521 901.224 299.998 892.521 300.565 902.356ZM855.678 973.675C886.017 974.539 906.224 976.775 923.48 981.096C937.01 984.524 956.442 990.812 966.694 995.133C976.946 999.455 993.368 1008.01 1003.2 1014.21C1013.04 1020.38 1031.13 1036.08 1043.44 1049.08C1057.12 1063.59 1069.43 1080.16 1075.18 1091.87C1080.33 1102.37 1086.77 1117.68 1089.51 1125.88C1092.22 1134.08 1096.07 1150.44 1098.01 1162.21C1099.97 1174.01 1100.57 1184.74 1099.35 1186.05C1098.16 1187.39 1094.25 1184.44 1090.68 1179.53C1087.1 1174.61 1076.01 1162.78 1066.06 1153.27C1056.07 1143.73 1041.2 1132.67 1033.01 1128.68C1024.81 1124.69 1009.4 1119.89 998.733 1118.04C984.338 1115.54 974.383 1115.54 959.988 1118.04C949.319 1119.92 933.911 1124.51 925.715 1128.26C917.519 1132.02 905.628 1139.08 899.309 1143.91C892.961 1148.74 882.5 1160.75 876.033 1170.58C869.566 1180.42 861.638 1197.2 858.419 1207.84C854.754 1219.94 852.608 1235.61 852.697 1249.56C852.757 1261.87 854.903 1279.96 857.466 1289.8C860.059 1299.63 867.062 1317.07 873.083 1328.51C879.073 1339.99 892.693 1358.61 903.363 1369.91C914.002 1381.2 930.096 1395.45 939.126 1401.56C948.127 1407.67 962.224 1416.01 970.42 1420.1C978.615 1424.21 994.024 1430.38 1004.69 1433.84C1015.36 1437.32 1036.14 1442.21 1050.89 1444.71C1065.64 1447.25 1090.44 1449.27 1106.02 1449.24C1121.58 1449.24 1147.75 1447.19 1164.14 1444.74C1180.53 1442.27 1206.01 1436.85 1220.77 1432.64C1235.52 1428.47 1263 1417.62 1281.86 1408.59C1300.73 1399.53 1326.86 1385.11 1339.98 1376.49C1353.09 1367.88 1373.86 1352.8 1386.17 1342.97C1398.45 1333.13 1419.85 1314.47 1433.71 1301.48C1456.03 1280.59 1458.09 1279.25 1451.8 1289.8C1447.87 1296.35 1438.42 1311.11 1430.79 1322.58C1423.13 1334.05 1410.43 1351.49 1402.56 1361.32C1394.7 1371.16 1380.06 1387.91 1370.08 1398.58C1360.1 1409.25 1340.51 1428.41 1326.57 1441.17C1312.65 1453.95 1289.16 1473.56 1274.41 1484.77C1259.66 1495.97 1234.83 1512.9 1219.28 1522.41C1203.69 1531.92 1174.87 1547.47 1155.2 1556.98C1135.53 1566.52 1099.32 1580.97 1074.73 1589.11C1050.14 1597.25 1016.61 1606.54 1000.22 1609.73C983.831 1612.95 965.711 1616.35 949.557 1619.03L920.708 1688.38C904.853 1726.5 888.431 1766.77 884.199 1777.82C879.997 1788.88 875.526 1797.97 874.304 1798C873.083 1798 858.747 1766.17 842.475 1727.22C826.202 1688.23 808.499 1645.65 793.329 1608.69L773.093 1599.99C761.976 1595.22 742.128 1586.01 729.014 1579.51C715.901 1573.05 693.757 1560.32 679.839 1551.23C665.742 1542.05 641.87 1522.08 625.955 1506.14C610.249 1490.43 590.758 1467.51 582.621 1455.2C574.485 1442.93 563.369 1422.12 557.915 1409.01C552.461 1395.9 545.248 1375.12 541.851 1362.81C536.695 1343.98 535.711 1331.58 535.622 1283.84C535.532 1230.88 536.039 1225.57 543.4 1201.88C547.722 1187.93 555.471 1167.16 560.627 1155.68C565.783 1144.21 577.167 1124.09 585.929 1110.98C594.662 1097.86 609.653 1079 619.22 1069.02C628.786 1059.06 645.327 1044.52 655.997 1036.71C666.636 1028.87 683.415 1017.96 693.251 1012.45C703.086 1006.94 722.517 998.203 736.465 993.047C750.383 987.891 773.182 981.126 787.13 978.056C807.545 973.526 820.867 972.662 855.678 973.675V973.675ZM479.354 1252.54C479.979 1259.93 479.979 1273.35 479.383 1282.35C478.787 1291.35 478.281 1285.33 478.281 1268.93C478.251 1252.54 478.757 1245.15 479.354 1252.54ZM1056.85 1363.83C1069.96 1363.83 1075.98 1364.33 1070.26 1364.99C1064.51 1365.62 1053.78 1365.62 1046.42 1364.99C1039.03 1364.36 1043.74 1363.86 1056.85 1363.83ZM364.79 1395.57C366.102 1395.6 378.172 1407.01 391.613 1420.96C405.084 1434.91 415.396 1446.29 414.591 1446.29C413.757 1446.29 401.687 1434.88 387.769 1420.93C373.821 1406.98 363.509 1395.57 364.79 1395.57ZM1104.53 1402.66C1120.93 1402.63 1128.29 1403.14 1120.93 1403.73C1113.53 1404.36 1100.12 1404.36 1091.12 1403.76C1082.09 1403.17 1088.14 1402.66 1104.53 1402.66Z" fill="black"/>
</svg>
