<svg width="2607" height="2688" viewBox="0 0 2607 2688" fill="none" xmlns="http://www.w3.org/2000/svg">
<g clip-path="url(#clip0_25_28)">
<path d="M1214.53 223.93C1216.09 217.828 1236.75 164.153 1260.41 104.731C1284.06 45.2657 1304.68 -1.81695 1306.29 0.0538804C1307.89 1.92471 1330.21 58.5842 1355.95 125.934C1381.66 193.329 1404.42 252.349 1406.51 257.071C1410.03 265.089 1408.96 265.534 1392.48 262.728C1382.68 261.08 1337.96 254.175 1211.59 235.066L1214.53 223.93Z" fill="#1A596A"/>
<path d="M829.18 318.586C804.592 286.113 784.77 258.273 785.126 256.714C785.483 255.155 801.029 255.244 819.648 256.937C838.267 258.63 938.668 268.919 1042.81 279.833C1146.91 290.79 1249.14 301.926 1269.98 304.643C1290.79 307.361 1308.34 310.345 1308.96 311.28C1309.58 312.26 1272.43 358.63 1226.42 414.354C1180.41 470.078 1102.77 564.556 1053.81 624.289C1004.9 683.977 964.504 731.104 964.014 728.966C963.568 726.784 961.029 700.013 958.312 669.367C955.64 638.765 952.521 605.179 951.363 594.756C950.205 584.333 947.265 575.825 944.815 575.825C942.366 575.825 924.815 583.531 905.84 592.974C886.864 602.418 857.287 619.166 840.138 630.124C822.989 641.126 793.902 662.24 775.55 677.073C757.153 691.906 721.964 724.779 697.286 750.169C672.609 775.559 639.825 813.376 624.413 834.178C609.001 855.025 585.615 890.081 572.475 912.13C559.29 934.179 539.735 972.264 528.956 996.763C518.176 1021.26 502.096 1063.85 493.232 1091.42C484.368 1118.99 472.163 1166.07 466.105 1196.1C460.091 1226.12 452.786 1274.72 449.935 1304.11C446.951 1334.76 445.927 1380.37 447.486 1411.02C449.045 1440.42 453.321 1484.52 456.973 1509.01C460.67 1533.51 467.931 1572.58 473.098 1595.87C478.31 1619.17 484.368 1640.2 486.595 1642.65C489.045 1645.36 490.559 1638.46 490.515 1624.83C490.47 1612.58 492.519 1581.49 495.103 1555.79C497.686 1530.08 503.833 1488.97 508.733 1464.47C513.677 1439.97 525.66 1395.87 535.415 1366.47C545.214 1337.08 564.279 1289.99 577.82 1261.8C591.362 1233.65 612.787 1193.56 625.393 1172.71C637.999 1151.91 666.329 1110.79 688.378 1081.4C713.01 1048.48 756.752 999.703 802.142 954.446C856.619 900.192 894.793 866.962 948.023 827.497C987.711 798.098 1049.85 755.381 1086.06 732.574C1122.32 709.768 1194.04 670.391 1245.49 645.046C1296.93 619.745 1368.07 587.496 1403.62 573.42C1439.16 559.344 1501.25 536.939 1541.7 523.575C1582.15 510.212 1640.23 492.35 1670.88 483.887C1701.48 475.468 1727.05 467.629 1727.67 466.515C1728.29 465.401 1710.74 426.871 1688.69 380.947C1666.65 335.022 1649.63 296.447 1650.88 295.2C1652.12 293.997 1686.73 303.485 1727.71 316.358C1768.74 329.187 1893.51 367.004 2004.95 400.412C2116.4 433.775 2218.23 464.377 2231.15 468.341C2244.06 472.35 2254.09 476.849 2253.42 478.408C2252.75 479.923 2211.06 515.691 2160.86 557.874L2140.08 575.348C2094.14 613.993 2042.74 657.226 2018.32 677.83C1990.12 701.572 1946.02 737.875 1920.32 758.454C1894.62 779.033 1849.01 816.494 1818.98 841.751C1788.96 866.962 1763.44 887.141 1762.24 886.517C1761.03 885.893 1764.06 844.334 1768.96 794.089C1773.86 743.888 1777.34 702.151 1776.71 701.349C1776.09 700.592 1747.49 706.338 1713.19 714.178C1678.89 721.973 1621.26 737.162 1585.13 747.853C1549.01 758.588 1487.85 778.588 1449.27 792.307C1410.7 806.071 1349.05 830.169 1312.3 845.938C1275.55 861.662 1215.42 890.793 1178.67 910.615C1141.92 930.437 1092.83 958.722 1069.54 973.466C1046.24 988.21 1001.16 1019.84 969.314 1043.8C937.466 1067.72 893.501 1104.02 871.63 1124.42C849.759 1144.87 814.882 1180.59 794.169 1203.89C773.456 1227.19 740.627 1270.26 721.206 1299.66C701.83 1329.06 676.217 1373.16 664.28 1397.66C652.386 1422.15 636.395 1460.24 628.734 1482.29C621.028 1504.34 611.763 1535.43 608.065 1551.33C604.368 1567.28 598.489 1600.33 595.014 1624.83C591.495 1649.33 588.6 1691.91 588.555 1719.48C588.511 1747.06 590.56 1785.14 593.099 1804.12C595.638 1823.09 600.849 1854.67 604.68 1874.27C608.511 1893.87 613.411 1912.94 615.504 1916.59C617.687 1920.42 618.221 1902.34 616.707 1874.27C615.237 1846.74 616.351 1803.8 619.335 1776.28C622.23 1749.33 627.62 1712.27 631.317 1693.87C635.059 1675.52 644.725 1640.42 652.832 1615.92C660.983 1591.42 676.663 1552.36 687.665 1529.06C698.712 1505.76 722.409 1464.69 740.316 1437.74C763.523 1402.87 789.625 1371.95 831.006 1330.35C862.989 1298.28 908.156 1258.01 931.452 1240.91C954.749 1223.8 984.816 1202.87 998.268 1194.36C1011.72 1185.9 1035.77 1171.77 1051.72 1162.95C1067.62 1154.18 1101.74 1137.92 1127.44 1126.83C1153.15 1115.69 1194.26 1099.66 1218.76 1091.2C1243.26 1082.69 1289.36 1068.61 1321.21 1059.84C1353.06 1051.11 1400.19 1039.7 1425.89 1034.49C1451.59 1029.32 1473.15 1024.69 1473.77 1024.29C1474.4 1023.85 1463.97 992.397 1450.65 954.446C1437.33 916.495 1427.31 884.914 1428.38 884.29C1429.45 883.666 1448.87 891.417 1471.54 901.528C1494.22 911.595 1560.85 940.459 1619.65 965.671C1678.45 990.838 1760.63 1026.74 1802.28 1045.45C1843.93 1064.16 1880.01 1081.26 1882.46 1083.4C1885.31 1085.89 1883.71 1088.92 1878.01 1091.69C1873.11 1094.05 1779.39 1155.38 1669.76 1227.9C1560.14 1300.46 1467.94 1360.77 1464.86 1361.98C1460.9 1363.49 1462.81 1346.52 1471.54 1302.96C1478.31 1269.28 1485 1236.76 1489.09 1219.48L1458.58 1223C1441.83 1224.96 1408.07 1230.53 1383.57 1235.38C1359.07 1240.24 1316.98 1250.39 1290.03 1257.92C1263.08 1265.45 1217.96 1280.64 1189.81 1291.69C1161.61 1302.73 1117.51 1322.47 1091.81 1335.52C1066.11 1348.61 1023.03 1373.91 996.174 1391.82C969.27 1409.73 929.448 1441.4 907.622 1462.24C885.795 1483.09 853.59 1519.13 836.084 1542.42C818.579 1565.72 793.991 1604.78 781.429 1629.28C768.913 1653.78 752.61 1691.87 745.26 1713.92C737.866 1735.96 728.556 1771.02 724.547 1791.87C720.494 1812.71 716.039 1849.77 714.658 1874.27C712.832 1905.41 714.347 1934.23 719.692 1970.04C723.923 1998.19 733.322 2039.31 740.627 2061.36C747.888 2083.41 763.255 2119.49 774.703 2141.53C786.195 2163.58 804.414 2193.65 815.238 2208.35C826.018 2223.05 845.394 2247.1 858.267 2261.8C871.14 2276.5 895.016 2299.58 911.363 2313.03C927.666 2326.48 955.417 2347.24 973.012 2359.13C990.562 2370.98 999.916 2379.31 993.813 2377.62C987.666 2375.92 959.604 2365.46 931.452 2354.36C903.256 2343.27 868.2 2328.13 853.501 2320.73C838.802 2313.29 806.73 2295.3 782.231 2280.73C757.732 2266.12 718.712 2239.89 695.505 2222.38C672.342 2204.88 630.426 2168.48 602.453 2141.53C574.479 2114.59 535.593 2073.52 516.083 2050.22C496.573 2026.92 464.679 1983.85 445.214 1954.45C425.704 1925.05 399.022 1879.93 385.882 1854.23C372.697 1828.53 353.053 1785.41 342.229 1758.46C331.36 1731.51 317.24 1691.42 310.87 1669.37C304.456 1647.32 296.171 1615.25 292.385 1598.1C288.643 1580.95 281.516 1540.86 276.572 1509.01C271.672 1477.17 267.173 1450.62 266.594 1450.04C266.015 1449.46 205.747 1425.41 132.696 1396.59C59.6885 1367.77 -0.0445188 1342.2 2.48965e-05 1339.75C2.48965e-05 1337.3 57.7731 1311.91 128.33 1283.31C198.887 1254.76 259.6 1229.5 263.298 1227.28C267.173 1224.92 271.538 1212.13 273.676 1196.85C275.681 1182.33 282.273 1147.41 288.287 1119.26C294.3 1091.11 309.311 1037.97 321.605 1001.22C333.899 964.469 355.547 910.348 369.668 880.949C383.788 851.55 405.971 810.481 418.933 789.635C431.94 768.788 456.038 733.732 472.519 711.683C489 689.634 516.929 655.558 534.524 635.959C552.119 616.36 584.012 584.467 605.348 565.09C626.685 545.714 666.195 513.553 693.144 493.553C720.093 473.597 755.149 449.143 771.095 439.21C786.997 429.277 816.574 412.884 836.797 402.728C857.02 392.573 873.635 382.773 873.724 380.947C873.813 379.12 853.768 351.058 829.18 318.586Z" fill="#1A596A"/>
<path d="M1955.64 820.993C1955.42 818.633 1988.83 788.521 2029.81 754.044L2104.29 691.416L2122.95 717.118C2133.2 731.282 2151.28 757.92 2163.08 776.272C2174.89 794.668 2195.16 829.724 2208.07 854.223C2221.04 878.722 2240.9 921.84 2252.17 949.992C2263.44 978.188 2278.45 1021.26 2285.49 1045.76C2292.53 1070.26 2302.28 1110.35 2307.18 1134.85C2312.08 1159.35 2317.74 1188.34 2323.44 1219.21L2434.8 1264.25C2496.05 1289.01 2560.19 1315.21 2577.34 1322.42C2594.49 1329.64 2607.81 1337.48 2606.96 1339.88C2606.12 1342.24 2599.12 1346.61 2591.37 1349.59C2583.67 1352.53 2520.73 1377.08 2451.5 1404.16C2382.28 1431.2 2324.82 1454.85 2323.75 1456.68C2322.73 1458.5 2314.89 1487.1 2306.38 1520.15C2297.87 1553.25 2283.49 1600.33 2274.35 1624.83C2265.22 1649.33 2250.17 1684.43 2240.95 1702.78C2231.68 1721.18 2212.26 1754.23 2197.69 1776.28C2183.17 1798.33 2159.08 1831.42 2144.15 1849.77C2129.23 1868.17 2105.36 1894.45 2091.06 1908.21C2076.76 1921.98 2053.06 1942.87 2038.36 1954.63C2023.66 1966.39 1998.09 1984.7 1981.57 1995.3C1965.04 2005.9 1934.98 2022.87 1914.75 2032.94C1894.53 2043.05 1857.96 2057.97 1833.46 2066.08C1808.96 2074.23 1770.88 2083.98 1748.83 2087.81C1726.78 2091.6 1683.17 2094.76 1651.95 2094.76C1615.06 2094.76 1583.84 2092.18 1562.86 2087.41C1545.09 2083.36 1518.54 2075.25 1503.84 2069.42C1489.14 2063.58 1468.11 2052.98 1457.07 2045.85C1446.02 2038.73 1429.98 2025.72 1421.43 2016.99C1412.84 2008.22 1406.87 2001.09 1408.07 2001.09C1409.27 2001.09 1418.31 2004.96 1428.11 2009.69C1437.91 2014.36 1461.97 2022.34 1481.57 2027.37C1501.17 2032.36 1533.24 2037.79 1552.84 2039.44C1573.77 2041.18 1605.93 2040.11 1630.79 2036.9C1654.08 2033.87 1690.16 2026.48 1710.97 2020.42C1731.77 2014.41 1762.86 2003.49 1780.01 1996.14C1797.16 1988.84 1830.21 1970.18 1853.51 1954.67C1879.47 1937.39 1910.88 1910.84 1934.8 1885.9C1956.22 1863.58 1986.65 1825.76 2002.42 1801.89C2018.14 1778.01 2041.03 1737.39 2053.28 1711.69C2065.53 1685.99 2082.5 1643.85 2090.97 1618.15C2099.43 1592.44 2111.1 1548.35 2116.89 1520.15C2126.34 1474.4 2127.45 1457.3 2127.4 1359.79C2127.36 1272.71 2125.71 1241.66 2119.12 1206.12C2114.58 1181.62 2105.36 1142.55 2098.63 1119.26C2091.9 1095.96 2078.14 1055.87 2068.03 1030.17C2057.92 1004.47 2036.31 959.346 2019.97 929.947C2003.62 900.548 1982.55 864.958 1973.11 850.882C1963.66 836.806 1955.82 823.354 1955.64 820.993Z" fill="#1A596A"/>
<path fill-rule="evenodd" clip-rule="evenodd" d="M1278.89 1455.25C1324.24 1456.54 1354.44 1459.88 1380.23 1466.34C1400.45 1471.47 1429.49 1480.86 1444.82 1487.32C1460.14 1493.78 1484.68 1506.57 1499.38 1515.83C1514.08 1525.05 1541.12 1548.53 1559.52 1567.95C1579.96 1589.64 1598.36 1614.41 1606.96 1631.91C1614.66 1647.59 1624.28 1670.49 1628.38 1682.74C1632.44 1694.99 1638.18 1719.44 1641.08 1737.04C1644.02 1754.67 1644.91 1770.71 1643.08 1772.67C1641.3 1774.67 1635.46 1770.26 1630.12 1762.92C1624.77 1755.57 1608.2 1737.88 1593.33 1723.67C1578.4 1709.42 1556.18 1692.89 1543.93 1686.92C1531.68 1680.95 1508.65 1673.78 1492.7 1671.02C1471.19 1667.28 1456.31 1667.28 1434.8 1671.02C1418.85 1673.83 1395.82 1680.69 1383.57 1686.3C1371.32 1691.91 1353.55 1702.47 1344.1 1709.69C1334.62 1716.9 1318.98 1734.85 1309.32 1749.55C1299.65 1764.25 1287.8 1789.33 1282.99 1805.23C1277.51 1823.32 1274.3 1846.75 1274.44 1867.59C1274.53 1885.99 1277.73 1913.03 1281.57 1927.73C1285.44 1942.43 1295.91 1968.48 1304.91 1985.59C1313.86 2002.74 1334.22 2030.58 1350.16 2047.46C1366.06 2064.34 1390.12 2085.63 1403.61 2094.77C1417.07 2103.9 1438.14 2116.37 1450.39 2122.47C1462.64 2128.62 1485.66 2137.84 1501.61 2143.01C1517.56 2148.22 1548.6 2155.52 1570.65 2159.26C1592.7 2163.05 1629.76 2166.08 1653.06 2166.04C1676.31 2166.04 1715.42 2162.96 1739.92 2159.31C1764.42 2155.61 1802.5 2147.51 1824.55 2141.22C1846.6 2134.99 1887.67 2118.77 1915.87 2105.28C1944.06 2091.74 1983.13 2070.18 2002.73 2057.3C2022.33 2044.43 2053.37 2021.89 2071.77 2007.19C2090.12 1992.49 2122.1 1964.61 2142.82 1945.19C2176.18 1913.96 2179.25 1911.96 2169.85 1927.73C2163.98 1937.53 2149.85 1959.58 2138.45 1976.72C2127 1993.87 2108.03 2019.93 2096.27 2034.63C2084.51 2049.33 2062.64 2074.36 2047.72 2090.31C2032.79 2106.26 2003.53 2134.9 1982.68 2153.96C1961.88 2173.07 1926.78 2202.38 1904.73 2219.13C1882.68 2235.88 1845.58 2261.18 1822.33 2275.39C1799.03 2289.6 1755.96 2312.85 1726.56 2327.06C1697.16 2341.31 1643.04 2362.92 1606.29 2375.08C1569.54 2387.24 1519.43 2401.14 1494.93 2405.9C1470.43 2410.71 1443.35 2415.79 1419.21 2419.8L1376.09 2523.45C1352.39 2580.42 1327.85 2640.6 1321.52 2657.13C1315.24 2673.65 1308.56 2687.24 1306.73 2687.28C1304.91 2687.28 1283.48 2639.71 1259.16 2581.49C1234.84 2523.23 1208.38 2459.58 1185.71 2404.34L1155.46 2391.34C1138.85 2384.21 1109.18 2370.45 1089.58 2360.74C1069.98 2351.07 1036.89 2332.05 1016.09 2318.46C995.016 2304.74 959.337 2274.9 935.55 2251.07C912.076 2227.59 882.944 2193.34 870.784 2174.94C858.623 2156.59 842.009 2125.5 833.857 2105.9C825.706 2086.3 814.926 2055.26 809.848 2036.86C802.142 2008.71 800.672 1990.18 800.538 1918.82C800.405 1839.66 801.162 1831.74 812.164 1796.32C818.623 1775.48 830.204 1744.43 837.911 1727.28C845.617 1710.13 862.632 1680.06 875.728 1660.46C888.779 1640.87 911.185 1612.67 925.483 1597.75C939.782 1582.87 964.504 1561.13 980.45 1549.46C996.352 1537.75 1021.43 1521.44 1036.13 1513.2C1050.83 1504.96 1079.87 1491.91 1100.72 1484.21C1121.52 1476.5 1155.6 1466.39 1176.44 1461.8C1206.95 1455.03 1226.87 1453.74 1278.89 1455.25Z" fill="#CBAA5E"/>
</g>
<defs>
<clipPath id="clip0_25_28">
<rect width="2607" height="2688" fill="white"/>
</clipPath>
</defs>
</svg>
