<svg width="1924" height="1983" viewBox="0 0 1924 1983" fill="none" xmlns="http://www.w3.org/2000/svg">
<path d="M895.996 165.201C897.146 160.699 912.394 121.101 929.843 77.2638C947.293 33.394 962.508 -1.34043 963.69 0.0397494C964.874 1.41992 981.337 43.2195 1000.33 92.9058C1019.29 142.625 1036.08 186.166 1037.63 189.649C1040.22 195.564 1039.44 195.893 1027.28 193.823C1020.05 192.607 987.055 187.513 893.827 173.416L895.996 165.201Z" fill="white"/>
<path d="M611.713 235.031C593.574 211.075 578.95 190.537 579.213 189.387C579.476 188.236 590.945 188.302 604.681 189.551C618.417 190.8 692.486 198.391 769.316 206.442C846.113 214.525 921.529 222.741 936.909 224.745C952.255 226.75 965.202 228.952 965.662 229.642C966.122 230.365 938.716 264.573 904.77 305.683C870.825 346.792 813.547 416.491 777.433 460.558C741.351 504.592 711.546 539.359 711.184 537.782C710.856 536.172 708.983 516.422 706.978 493.814C705.006 471.238 702.706 446.461 701.852 438.771C700.997 431.081 698.828 424.805 697.021 424.805C695.214 424.805 682.266 430.49 668.267 437.457C654.268 444.423 632.449 456.779 619.797 464.863C607.145 472.98 585.687 488.556 572.148 499.499C558.576 510.441 532.616 534.693 514.411 553.424C496.206 572.155 472.02 600.054 460.65 615.401C449.28 630.78 432.028 656.641 422.333 672.908C412.606 689.174 398.18 717.271 390.228 735.344C382.276 753.418 370.413 784.833 363.873 805.174C357.334 825.516 348.33 860.25 343.861 882.399C339.424 904.547 334.035 940.399 331.932 962.087C329.73 984.696 328.974 1018.35 330.125 1040.95C331.275 1062.64 334.429 1095.18 337.124 1113.25C339.852 1131.32 345.208 1160.14 349.02 1177.33C352.865 1194.52 357.334 1210.03 358.977 1211.83C360.784 1213.84 361.901 1208.74 361.869 1198.69C361.836 1189.65 363.347 1166.71 365.253 1147.75C367.159 1128.79 371.694 1098.46 375.309 1080.39C378.957 1062.31 387.796 1029.78 394.993 1008.09C402.222 986.405 416.287 951.67 426.277 930.869C436.267 910.101 452.073 880.525 461.373 865.146C470.672 849.8 491.572 819.469 507.839 797.781C526.011 773.496 558.281 737.513 591.766 704.126C631.956 664.101 660.118 639.586 699.387 610.471C728.666 588.783 774.508 557.269 801.224 540.444C827.973 523.619 880.88 494.57 918.835 475.871C956.79 457.206 1009.27 433.415 1035.49 423.03C1061.72 412.646 1107.52 396.117 1137.36 386.259C1167.2 376.4 1210.05 363.223 1232.66 356.979C1255.24 350.768 1274.1 344.985 1274.56 344.163C1275.02 343.342 1262.07 314.917 1245.8 281.037C1229.54 247.157 1216.99 218.699 1217.91 217.779C1218.83 216.891 1244.36 223.891 1274.59 233.388C1304.86 242.852 1396.9 270.751 1479.12 295.397C1561.34 320.01 1636.46 342.586 1645.99 345.511C1655.52 348.468 1662.91 351.787 1662.42 352.937C1661.93 354.055 1631.17 380.442 1594.13 411.562L1578.77 424.487C1544.88 452.988 1506.99 484.863 1488.98 500.057C1468.18 517.572 1435.64 544.354 1416.68 559.536C1397.72 574.718 1364.07 602.355 1341.92 620.987C1319.78 639.586 1300.95 654.473 1300.06 654.013C1299.17 653.552 1301.41 622.893 1305.02 585.825C1308.64 548.791 1311.2 518 1310.74 517.408C1310.28 516.849 1289.18 521.089 1263.88 526.872C1238.58 532.623 1196.05 543.829 1169.4 551.715C1142.75 559.635 1097.63 574.39 1069.18 584.511C1040.72 594.665 995.237 612.443 968.127 624.076C941.016 635.676 896.653 657.167 869.543 671.79C842.432 686.414 806.219 707.281 789.033 718.158C771.846 729.035 738.591 752.366 715.095 770.046C691.599 787.692 659.165 814.474 643.03 829.525C626.895 844.608 601.165 870.963 585.884 888.149C570.604 905.336 546.385 937.113 532.057 958.801C517.763 980.49 498.867 1013.02 490.061 1031.1C481.287 1049.17 469.489 1077.27 463.837 1093.53C458.152 1109.8 451.317 1132.74 448.59 1144.47C445.862 1156.23 441.524 1180.61 438.961 1198.69C436.365 1216.76 434.229 1248.18 434.196 1268.52C434.164 1288.86 435.675 1316.96 437.548 1330.96C439.421 1344.95 443.266 1368.25 446.092 1382.71C448.918 1397.17 452.533 1411.24 454.077 1413.93C455.688 1416.76 456.082 1403.41 454.965 1382.71C453.88 1362.4 454.702 1330.73 456.904 1310.42C459.04 1290.54 463.016 1263.2 465.743 1249.62C468.504 1236.08 475.634 1210.19 481.615 1192.12C487.629 1174.04 499.196 1145.22 507.313 1128.04C515.462 1110.85 532.945 1080.55 546.155 1060.67C563.276 1034.94 582.532 1012.14 613.06 981.443C636.655 957.782 669.976 928.076 687.163 915.457C704.349 902.838 726.53 887.394 736.455 881.117C746.379 874.873 764.124 864.456 775.888 857.95C787.62 851.476 812.791 839.482 831.752 831.299C850.713 823.084 881.044 811.254 899.118 805.01C917.192 798.734 951.203 788.35 974.699 781.876C998.195 775.435 1032.96 767.023 1051.92 763.178C1070.88 759.366 1086.79 755.948 1087.25 755.653C1087.71 755.324 1080.02 732.124 1070.19 704.126C1060.37 676.128 1052.97 652.83 1053.76 652.369C1054.55 651.909 1068.88 657.627 1085.61 665.087C1102.33 672.513 1151.49 693.808 1194.87 712.407C1238.25 730.974 1298.88 757.46 1329.6 771.262C1360.33 785.063 1386.94 797.682 1388.75 799.259C1390.85 801.1 1389.67 803.334 1385.47 805.372C1381.85 807.113 1312.71 852.363 1231.84 905.862C1150.97 959.393 1082.94 1003.89 1080.68 1004.77C1077.75 1005.89 1079.17 993.371 1085.61 961.233C1090.6 936.39 1095.53 912.401 1098.55 899.651L1076.04 902.247C1063.69 903.693 1038.78 907.8 1020.7 911.382C1002.63 914.964 971.577 922.456 951.696 928.01C931.815 933.564 898.527 944.769 877.758 952.919C856.957 961.068 824.424 975.626 805.463 985.254C786.502 994.916 754.725 1013.58 734.91 1026.79C715.062 1040 685.684 1063.37 669.582 1078.74C653.48 1094.12 629.721 1120.71 616.807 1137.9C603.892 1155.08 585.753 1183.9 576.486 1201.97C567.252 1220.05 555.225 1248.14 549.802 1264.41C544.347 1280.68 537.479 1306.54 534.522 1321.92C531.532 1337.3 528.245 1364.64 527.227 1382.71C525.879 1405.68 526.997 1426.94 530.94 1453.36C534.062 1474.13 540.996 1504.46 546.385 1520.73C551.741 1537 563.078 1563.61 571.524 1579.88C580.002 1596.15 593.442 1618.33 601.427 1629.17C609.38 1640.02 623.675 1657.76 633.172 1668.61C642.668 1679.45 660.282 1696.47 672.342 1706.4C684.369 1716.32 704.842 1731.63 717.822 1740.41C730.77 1749.15 737.67 1755.29 733.168 1754.04C728.634 1752.8 707.931 1745.07 687.163 1736.89C666.361 1728.71 640.5 1717.54 629.655 1712.08C618.811 1706.59 595.151 1693.32 577.077 1682.57C559.004 1671.79 530.217 1652.44 513.096 1639.52C496.008 1626.61 465.086 1599.76 444.449 1579.88C423.812 1560 395.124 1529.7 380.731 1512.51C366.338 1495.33 342.809 1463.55 328.449 1441.86C314.055 1420.17 294.372 1386.89 284.677 1367.92C274.951 1348.96 260.459 1317.15 252.473 1297.27C244.455 1277.39 234.038 1247.82 229.339 1231.55C224.607 1215.28 218.495 1191.62 215.702 1178.97C212.941 1166.32 207.683 1136.74 204.036 1113.25C200.421 1089.75 197.102 1070.17 196.675 1069.74C196.248 1069.31 151.786 1051.57 97.8938 1030.31C44.0342 1009.05 -0.0328429 990.184 1.83669e-05 988.376C1.83669e-05 986.569 42.6211 967.838 94.6734 946.741C146.726 925.677 191.516 907.045 194.243 905.401C197.102 903.66 200.323 894.229 201.9 882.957C203.379 872.244 208.242 846.481 212.678 825.713C217.115 804.944 228.189 765.741 237.259 738.63C246.328 711.52 262.299 671.593 272.716 649.905C283.133 628.216 299.498 597.918 309.061 582.539C318.656 567.16 336.434 541.298 348.593 525.032C360.751 508.766 381.355 483.627 394.336 469.168C407.316 454.709 430.845 431.18 446.585 416.885C462.326 402.591 491.474 378.865 511.355 364.11C531.236 349.388 557.098 331.347 568.862 324.019C580.593 316.691 602.413 304.598 617.332 297.106C632.251 289.614 644.509 282.384 644.574 281.037C644.64 279.689 629.853 258.987 611.713 235.031Z" fill="white"/>
<path d="M1442.74 605.674C1442.58 603.932 1467.22 581.718 1497.46 556.283L1552.4 510.08L1566.17 529.041C1573.73 539.491 1587.07 559.142 1595.78 572.681C1604.49 586.253 1619.44 612.114 1628.97 630.188C1638.53 648.262 1653.19 680.072 1661.5 700.84C1669.81 721.641 1680.89 753.418 1686.08 771.492C1691.27 789.565 1698.47 819.141 1702.08 837.214C1705.7 855.288 1709.87 876.681 1714.08 899.454L1796.23 932.676C1841.42 950.947 1888.74 970.27 1901.39 975.593C1914.04 980.917 1923.86 986.7 1923.24 988.475C1922.62 990.216 1917.46 993.437 1911.74 995.639C1906.05 997.807 1859.62 1015.91 1808.55 1035.89C1757.49 1055.84 1715.1 1073.29 1714.31 1074.64C1713.55 1075.98 1707.77 1097.08 1701.49 1121.46C1695.22 1145.88 1684.6 1180.61 1677.87 1198.69C1671.13 1216.76 1660.02 1242.66 1653.22 1256.2C1646.38 1269.77 1632.06 1294.15 1621.31 1310.42C1610.6 1326.68 1592.82 1351.1 1581.81 1364.64C1570.8 1378.21 1553.19 1397.6 1542.64 1407.75C1532.09 1417.91 1514.61 1433.32 1503.77 1441.99C1492.92 1450.67 1474.06 1464.18 1461.87 1472C1449.68 1479.82 1427.49 1492.34 1412.58 1499.76C1397.66 1507.22 1370.68 1518.23 1352.6 1524.21C1334.53 1530.23 1306.43 1537.42 1290.17 1540.25C1273.9 1543.04 1241.73 1545.38 1218.69 1545.38C1191.49 1545.38 1168.45 1543.47 1152.97 1539.95C1139.86 1536.96 1120.27 1530.98 1109.43 1526.68C1098.59 1522.37 1083.08 1514.55 1074.93 1509.29C1066.78 1504.04 1054.95 1494.44 1048.64 1488C1042.29 1481.53 1037.89 1476.27 1038.78 1476.27C1039.67 1476.27 1046.34 1479.13 1053.57 1482.61C1060.8 1486.06 1078.54 1491.94 1093 1495.66C1107.46 1499.34 1131.12 1503.35 1145.58 1504.56C1161.02 1505.84 1184.75 1505.05 1203.09 1502.69C1220.27 1500.45 1246.89 1495 1262.24 1490.53C1277.58 1486.09 1300.52 1478.04 1313.17 1472.62C1325.82 1467.23 1350.21 1453.46 1367.39 1442.03C1386.55 1429.28 1409.72 1409.69 1427.36 1391.29C1443.17 1374.83 1465.61 1346.93 1477.25 1329.31C1488.85 1311.7 1505.74 1281.73 1514.77 1262.77C1523.81 1243.81 1536.33 1212.72 1542.58 1193.76C1548.82 1174.8 1557.43 1142.27 1561.7 1121.46C1568.67 1087.72 1569.49 1075.1 1569.46 1003.16C1569.42 938.92 1568.21 916.016 1563.34 889.792C1559.99 871.719 1553.19 842.899 1548.23 825.713C1543.27 808.526 1533.11 778.951 1525.65 759.99C1518.19 741.029 1502.25 707.741 1490.19 686.052C1478.13 664.364 1462.59 638.108 1455.62 627.723C1448.66 617.339 1442.87 607.415 1442.74 605.674Z" fill="white"/>
<path fill-rule="evenodd" clip-rule="evenodd" d="M607.375 684.41C607.868 684.41 608.295 684.772 608.328 685.232C608.328 685.692 598.371 695.682 563.933 728.773L585.194 706.592C596.892 694.4 606.882 684.41 607.375 684.41V684.41ZM637.706 953.873C638.593 953.873 628.275 964.98 614.769 978.552C601.263 992.123 589.466 1003.23 588.579 1003.23C587.658 1003.23 597.977 992.123 611.483 978.552C625.022 964.98 636.786 953.873 637.706 953.873ZM331.406 994.949C332.063 1005.79 332.063 1024.29 331.406 1036.03C330.782 1047.76 330.256 1038.92 330.256 1016.31C330.256 993.701 330.782 984.105 331.406 994.949ZM943.481 1073.59C976.933 1074.54 999.213 1077 1018.24 1081.77C1033.16 1085.55 1054.58 1092.48 1065.89 1097.25C1077.19 1102.01 1095.3 1111.44 1106.14 1118.28C1116.99 1125.08 1136.94 1142.4 1150.51 1156.73C1165.59 1172.73 1179.16 1191 1185.5 1203.91C1191.19 1215.48 1198.29 1232.37 1201.31 1241.41C1204.3 1250.45 1208.54 1268.49 1210.68 1281.47C1212.84 1294.48 1213.5 1306.31 1212.15 1307.76C1210.84 1309.23 1206.54 1305.98 1202.59 1300.56C1198.65 1295.14 1186.42 1282.09 1175.45 1271.61C1164.44 1261.09 1148.04 1248.9 1139.01 1244.5C1129.97 1240.09 1112.98 1234.8 1101.21 1232.77C1085.34 1230.01 1074.37 1230.01 1058.5 1232.77C1046.73 1234.84 1029.74 1239.9 1020.7 1244.04C1011.67 1248.18 998.556 1255.97 991.59 1261.29C984.59 1266.61 973.056 1279.86 965.925 1290.7C958.794 1301.55 950.053 1320.05 946.504 1331.78C942.462 1345.12 940.096 1362.4 940.194 1377.78C940.26 1391.36 942.626 1411.3 945.452 1422.15C948.311 1432.99 956.034 1452.21 962.672 1464.83C969.277 1477.48 984.294 1498.02 996.059 1510.48C1007.79 1522.93 1025.54 1538.64 1035.49 1545.38C1045.42 1552.11 1060.96 1561.31 1070 1565.82C1079.03 1570.35 1096.02 1577.15 1107.79 1580.96C1119.55 1584.81 1142.46 1590.2 1158.72 1592.96C1174.99 1595.75 1202.33 1597.99 1219.52 1597.95C1236.67 1597.95 1265.52 1595.69 1283.6 1592.99C1301.67 1590.26 1329.77 1584.28 1346.03 1579.65C1362.3 1575.05 1392.6 1563.09 1413.4 1553.13C1434.2 1543.14 1463.02 1527.24 1477.48 1517.74C1491.94 1508.24 1514.84 1491.62 1528.41 1480.77C1541.95 1469.93 1565.55 1449.36 1580.83 1435.03C1605.44 1411.99 1607.71 1410.51 1600.77 1422.15C1596.43 1429.38 1586.02 1445.64 1577.61 1458.29C1569.16 1470.95 1555.16 1490.17 1546.49 1501.01C1537.81 1511.86 1521.68 1530.33 1510.67 1542.09C1499.66 1553.85 1478.07 1574.98 1462.69 1589.05C1447.34 1603.15 1421.45 1624.77 1405.18 1637.12C1388.92 1649.48 1361.54 1668.15 1344.39 1678.63C1327.2 1689.11 1295.43 1706.27 1273.74 1716.75C1252.05 1727.26 1212.12 1743.2 1185.01 1752.17C1157.9 1761.14 1120.93 1771.4 1102.86 1774.91C1084.78 1778.46 1064.8 1782.21 1046.99 1785.17L1015.18 1861.63C997.702 1903.66 979.595 1948.06 974.929 1960.25C970.295 1972.44 965.366 1982.46 964.019 1982.5C962.672 1982.5 946.865 1947.4 928.923 1904.45C910.981 1861.47 891.461 1814.51 874.735 1773.76L852.422 1764.17C840.165 1758.91 818.279 1748.75 803.82 1741.59C789.361 1734.46 764.945 1720.43 749.599 1710.41C734.056 1700.28 707.734 1678.27 690.186 1660.69C672.868 1643.37 651.376 1618.1 642.405 1604.53C633.434 1590.99 621.177 1568.05 615.163 1553.59C609.15 1539.13 601.197 1516.23 597.451 1502.66C591.766 1481.89 590.682 1468.22 590.583 1415.57C590.485 1357.18 591.043 1351.33 599.16 1325.21C603.925 1309.83 612.469 1286.92 618.154 1274.27C623.839 1261.62 636.392 1239.44 646.053 1224.98C655.681 1210.52 672.211 1189.72 682.759 1178.71C693.308 1167.73 711.546 1151.7 723.31 1143.09C735.041 1134.45 753.542 1122.42 764.387 1116.34C775.231 1110.26 796.656 1100.63 812.035 1094.95C827.382 1089.26 852.521 1081.8 867.9 1078.42C890.41 1073.42 905.099 1072.47 943.481 1073.59V1073.59ZM528.541 1381.07C529.231 1389.22 529.231 1404.01 528.574 1413.93C527.917 1423.86 527.358 1417.22 527.358 1399.14C527.325 1381.07 527.884 1372.92 528.541 1381.07ZM1165.29 1503.77C1179.75 1503.77 1186.39 1504.33 1180.08 1505.06C1173.74 1505.75 1161.91 1505.75 1153.79 1505.06C1145.64 1504.37 1150.84 1503.81 1165.29 1503.77ZM402.222 1538.77C403.668 1538.8 416.977 1551.39 431.797 1566.77C446.651 1582.15 458.021 1594.7 457.133 1594.7C456.213 1594.7 442.904 1582.12 427.558 1566.74C412.179 1551.36 400.809 1538.77 402.222 1538.77ZM1217.87 1546.59C1235.95 1546.56 1244.06 1547.12 1235.95 1547.78C1227.8 1548.47 1213.01 1548.47 1203.08 1547.81C1193.13 1547.15 1199.8 1546.59 1217.87 1546.59Z" fill="white"/>
</svg>
